# AST/ASF file generated using VICON BodyLanguage
# -----------------------------------------------
:version 1.10
:name VICON
:units
  mass 1.0
  length 0.45
  angle deg
:documentation
   .ast/.asf automatically generated from VICON data using
   VICON BodyBuilder and BodyLanguage model FoxedUp or BRILLIANT.MOD
:root
   order TX TY TZ RX RY RZ
   axis XYZ
   position 0 0 0  
   orientation 0 0 0 
:bonedata
  begin
     id 1 
     name lhipjoint
     direction 0.576517 -0.752066 0.319413 
     length 2.45433 
     axis 0 0 0  XYZ
  end
  begin
     id 2 
     name lfemur
     direction 0.34202 -0.939693 0  
     length 7.54459  
     axis 0 0 20  XYZ
    dof rx ry rz
    limits (-160.0 20.0)
           (-70.0 70.0)
           (-60.0 70.0)
  end
  begin
     id 3 
     name ltibia
     direction 0.34202 -0.939693 0   
     length 7.73986   
     axis 0 0 20   XYZ
    dof rx
    limits (-10.0 170.0)
  end
  begin
     id 4 
     name lfoot
     direction 0.090693 -0.249177 0.964202   
     length 2.28437   
     axis -90 7.62852e-016 20   XYZ
    dof rx rz
    limits (-45.0 90.0)
           (-70.0 20.0)
  end
  begin
     id 5 
     name ltoes
     direction 1.5356e-011 -4.21928e-011 1   
     length 1.14243   
     axis -90 7.62852e-016 20   XYZ
    dof rx
    limits (-90.0 20.0)
  end
  begin
     id 6 
     name rhipjoint
     direction -0.573937 -0.753736 0.320122   
     length 2.44889  
     axis 0 0 0  XYZ 
  end
  begin
     id 7 
     name rfemur
     direction -0.34202 -0.939693 0   
     length 7.50166   
     axis 0 0 -20   XYZ
    dof rx ry rz
    limits (-160.0 20.0)
           (-70.0 70.0)
           (-70.0 60.0)
  end
  begin
     id 8 
     name rtibia
     direction -0.34202 -0.939693 0   
     length 7.54266   
     axis 0 0 -20   XYZ
    dof rx
    limits (-10.0 170.0)
 end
 begin
     id 9 
     name rfoot
     direction -0.114017 -0.31326 0.942798   
     length 2.34212  
     axis -90 -7.62852e-016 -20   XYZ
    dof rx rz
    limits (-45.0 90.0)
           (-20.0 70.0)
  end
  begin
     id 10 
     name rtoes
     direction -1.53557e-011 -4.21867e-011 1   
     length 1.16246   
     axis -90 -7.62852e-016 -20   XYZ
    dof rx
    limits (-90.0 20.0)
  end
  begin
     id 11 
     name lowerback
     direction -0.0228371 0.999155 -0.034167   
     length 2.0537   
     axis 0 0 0   XYZ
    dof rx ry rz
    limits (-20.0 45.0)
           (-30.0 30.0)
           (-30.0 30.0)
  end
  begin
     id 12 
     name upperback
     direction 0.0198981 0.999794 0.00389455   
     length 2.05302   
     axis 0 0 0   XYZ
    dof rx ry rz
    limits (-20.0 45.0)
           (-30.0 30.0)
           (-30.0 30.0)
  end
  begin
     id 13 
     name thorax
     direction 0.0304566 0.99935 0.0192987   
     length 2.05315   
     axis 0 0 0   XYZ
    dof rx ry rz
    limits (-20.0 45.0)
           (-30.0 30.0)
           (-30.0 30.0)
  end
  begin
     id 14 
     name lowerneck
     direction -0.0196762 0.99417 0.106017   
     length 1.82056   
     axis 0 0 0   XYZ
    dof rx ry rz
    limits (-20.0 45.0)
           (-30.0 30.0)
           (-30.0 30.0)
  end
  begin
     id 15 
     name upperneck
     direction 0.00517787 0.9802 -0.197944   
     length 1.83835   
     axis 0 0 0   XYZ
    dof rx ry rz
    limits (-20.0 45.0)
           (-30.0 30.0)
           (-30.0 30.0)
  end
  begin
     id 16
     name head
     direction 0.00211419 0.996945 -0.078081  
     length 1.85629  
     axis 0 0 0   XYZ
    dof rx ry rz
    limits (-20.0 45.0)
           (-30.0 30.0)
           (-30.0 30.0)
  end
  begin
     id 17 
     name lclavicle
     direction 0.930001 0.365811 -0.0357824  
     length 3.81961  
     axis 0 0 0   XYZ
    dof ry rz
    limits (-20.0 10.0)
           (0.0 20.0)
  end
  begin
     id 18 
     name lhumerus
     direction 1 -4.48968e-011 -3.06644e-027   
     length 5.14507   
     axis 180 -30 -90   XYZ
    dof rx ry rz
    limits (-60.0 90.0)
           (-90.0 90.0)
           (-90.0 90.0)
  end
  begin
     id 19
     name lradius
     direction 1 -4.48965e-011 9.06925e-028   
     length 3.50646   
     axis 180 -30 -90   XYZ
    dof rx
    limits (-10.0 170.0)
  end
  begin
     id 20
     name lwrist
     direction 1 -4.48957e-011 1.03922e-027   
     length 1.75323   
     axis -2.56395e-016 90 90   XYZ
    dof ry
    limits (-180.0 0.0)
 end
  begin
     id 21 
     name lhand
     direction 1 -4.48967e-011 2.08017e-027   
     length 0.629969   
     axis -1.32723e-015 90 90   XYZ
    dof rx rz
    limits (-90.0 90.0)
           (-45.0 45.0)
  end
  begin
     id 22 
     name lfingers
     direction 1 -4.49089e-011 4.20095e-027   
     length 0.507897   
     axis -2.6545e-015 90 90   XYZ
    dof rx
    limits (0.0 90.0)
  end
  begin
     id 23
     name lthumb
     direction 0.707107 -6.35001e-011 0.707107   
     length 0.729241   
     axis -90 45 5.05613e-014   XYZ
    dof rx rz
    limits (-45.0 45.0)
           (-45.0 45.0)
  end
  begin
     id 24 
     name rclavicle
     direction -0.881882 0.464123 -0.0829113   
     length 3.47515  
     axis 0 0 0   XYZ 
    dof ry rz
    limits (-10.0 20.0)
           (-20.0 0.0)
  end
  begin
     id 25 
     name rhumerus
     direction -1 -4.48961e-011 -1.55672e-027  
     length 5.232   
     axis 180 30 90   XYZ
    dof rx ry rz
    limits (-90.0 60.0)
           (-90.0 90.0)
           (-90.0 90.0)
  end
  begin
     id 26 
     name rradius
     direction -1 -4.48963e-011 6.18178e-029   
     length 3.65641   
     axis 180 30 90   XYZ
    dof rx
    limits (-10.0 170.0)
  end
  begin
     id 27 
     name rwrist
     direction -1 -4.48982e-011 1.04136e-027   
     length 1.8282   
     axis -2.56395e-016 -90 -90   XYZ
    dof ry
    limits (-180.0 0.0)
  end
  begin
     id 28
     name rhand
     direction -1 -4.48929e-011 2.07378e-027   
     length 0.656807   
     axis -1.32723e-015 -90 -90   XYZ
    dof rx rz
    limits (-90.0 90.0)
           (-45.0 45.0)
  end
  begin
     id 29
     name rfingers
     direction -1 -4.489e-011 4.13816e-027   
     length 0.529535   
     axis -2.6545e-015 -90 -90   XYZ
    dof rx
    limits (0.0 90.0)
  end
  begin
     id 30
     name rthumb
     direction -0.707107 -6.34843e-011 0.707107   
     length 0.760309   
     axis -90 -45 -5.05613e-014   XYZ
    dof rx rz
    limits (-45.0 45.0)
           (-45.0 45.0)
  end
:hierarchy
  begin
    root lhipjoint rhipjoint lowerback
    lhipjoint lfemur
    lfemur ltibia
    ltibia lfoot
    lfoot ltoes
    rhipjoint rfemur
    rfemur rtibia
    rtibia rfoot
    rfoot rtoes
    lowerback upperback
    upperback thorax
    thorax lowerneck lclavicle rclavicle
    lowerneck upperneck
    upperneck head
    lclavicle lhumerus
    lhumerus lradius
    lradius lwrist
    lwrist lhand lthumb
    lhand lfingers
    rclavicle rhumerus
    rhumerus rradius
    rradius rwrist
    rwrist rhand rthumb
    rhand rfingers
  end

#!OML:ASF H:\ManfredETheater\Project 1\Capture day 1\Session 1\subject.ASF
:FULLY-SPECIFIED
:DEGREES
1
root 21.5138 14.7819 42.6253 -154.963 -22.2226 -171.522
lowerback 15.3379 3.89799 7.53809
upperback -3.49647 6.65854 -0.54378
thorax -11.5695 2.57786 -6.46306
lowerneck -12.0593 -4.29325 -4.46566
upperneck -7.0999 -5.70086 5.39964
head 0.0859903 -2.99501 2.25708
rclavicle -8.64713e-015 -2.5842e-015
rhumerus -37.8141 17.3646 -93.5231
rradius 111.486
rwrist 3.17516
rhand -25.857 1.19215
rfingers 7.12502
rthumb 0.683836 -28.7865
lclavicle -8.64713e-015 -2.5842e-015
lhumerus -94.7017 -23.4826 99.8562
lradius 96.5908
lwrist 13.0751
lhand -31.3743 -9.82404
lfingers 7.12502
lthumb -4.64455 20.105
rfemur 2.22419 5.78535 27.1198
rtibia 30.1208
rfoot 35.026 -11.0516
rtoes 11.7832
lfemur -83.9619 2.96376 -18.9099
ltibia 69.7848
lfoot -17.2031 1.45488
ltoes -2.6314
2
root 21.4043 14.8339 42.317 -154.45 -23.596 -172.34
lowerback 15.5779 3.46265 6.95359
upperback -3.1485 5.97385 -0.388158
thorax -11.4915 2.31391 -5.819
lowerneck -11.5068 -4.19531 -4.59977
upperneck -8.62615 -5.63868 5.37433
head -0.497896 -3.01818 2.31238
rclavicle 1.74931e-014 -5.36719e-015
rhumerus -37.6973 17.6494 -93.0822
rradius 111.421
rwrist 3.09896
rhand -26.1392 1.29495
rfingers 7.12502
rthumb 0.411342 -28.6844
lclavicle 1.74931e-014 -5.36719e-015
lhumerus -92.6696 -22.9049 99.6937
lradius 95.3417
lwrist 13.2924
lhand -31.9216 -9.58381
lfingers 7.12502
lthumb -5.17301 20.3331
rfemur -0.0514412 4.03858 26.7208
rtibia 34.5139
rfoot 33.3085 -10.9611
rtoes 8.34625
lfemur -83.0777 1.83044 -19.4701
ltibia 69.971
lfoot -16.9654 2.78635
ltoes 0.371496
3
root 21.2793 14.8908 41.9965 -154.381 -24.4441 -173.127
lowerback 16.1833 3.15518 6.30345
upperback -2.62063 5.45969 -0.22664
thorax -11.3902 2.13451 -5.18565
lowerneck -11.2912 -4.14609 -4.91226
upperneck -9.81342 -5.62106 5.31796
head -0.912565 -3.04859 2.38024
rclavicle -1.39149e-014 7.43455e-014
rhumerus -37.5829 17.9397 -92.7242
rradius 111.136
rwrist 2.77699
rhand -26.4449 1.39226
rfingers 7.12502
rthumb 0.116028 -28.5875
lclavicle -1.39149e-014 7.43455e-014
lhumerus -90.4519 -22.327 99.6585
lradius 94.1279
lwrist 13.8116
lhand -32.5468 -9.20868
lfingers 7.12502
lthumb -5.77672 20.6926
rfemur -1.87497 2.15002 25.9303
rtibia 38.8131
rfoot 31.1009 -9.49412
rtoes -2.31714
lfemur -81.5761 1.12272 -20.1138
ltibia 70.1791
lfoot -18.1958 0.82659
ltoes 2.61319
4
root 21.153 14.9444 41.6753 -154.341 -25.0623 -173.938
lowerback 16.7472 2.92932 5.53821
upperback -2.04787 5.01035 -0.12564
thorax -11.1957 1.99119 -4.55565
lowerneck -11.1683 -4.051 -4.91831
upperneck -10.781 -5.57831 5.08992
head -1.25831 -3.06703 2.33404
rclavicle -3.97569e-016 -2.70347e-014
rhumerus -37.5583 18.0867 -92.6105
rradius 110.636
rwrist 2.22814
rhand -26.8449 1.47942
rfingers 7.12502
rthumb -0.270253 -28.5002
lclavicle -3.97569e-016 -2.70347e-014
lhumerus -88.0477 -21.7655 99.6412
lradius 92.8595
lwrist 14.4426
lhand -33.2849 -9.0917
lfingers 7.12502
lthumb -6.48929 20.7889
rfemur -3.62753 0.611536 25.042
rtibia 42.8251
rfoot 28.4863 -8.43112
rtoes -14.3675
lfemur -79.9349 0.644804 -20.8407
ltibia 70.3435
lfoot -18.7772 -1.42399
ltoes 7.58631
5
root 21.0127 15.0072 41.3413 -154.204 -25.341 -174.787
lowerback 17.0172 2.7855 4.65676
upperback -1.52319 4.6248 -0.0354882
thorax -10.8755 1.88401 -3.86289
lowerneck -11.5661 -3.89339 -4.82121
upperneck -11.0725 -5.43584 4.65719
head -1.31282 -3.01721 2.17626
rclavicle 1.35174e-014 -7.63333e-014
rhumerus -36.8176 18.3744 -92.1508
rradius 108.516
rwrist 0.107483
rhand -27.6004 1.50626
rfingers 7.12502
rthumb -0.999981 -28.4711
lclavicle 1.35174e-014 -7.63333e-014
lhumerus -85.2396 -21.1616 99.8476
lradius 91.4984
lwrist 14.7598
lhand -33.8061 -9.90517
lfingers 7.12502
lthumb -6.99238 19.9593
rfemur -5.94958 -0.45233 23.9952
rtibia 46.7712
rfoot 25.2037 -6.77777
rtoes -20.0091
lfemur -78.2088 0.581974 -21.8955
ltibia 70.5232
lfoot -19.5475 0.127627
ltoes 5.91955
6
root 20.8834 15.0524 41.0183 -153.967 -25.8741 -175.664
lowerback 17.5014 2.59653 3.93959
upperback -1.13038 4.22153 -0.00513946
thorax -10.8015 1.73821 -3.34109
lowerneck -11.5378 -3.79323 -4.78092
upperneck -11.7758 -5.3845 4.4229
head -1.55961 -3.02306 2.11324
rclavicle 4.9895e-014 -5.00937e-014
rhumerus -36.5185 18.3776 -91.8911
rradius 107.071
rwrist -1.12136
rhand -28.2221 1.46057
rfingers 7.12502
rthumb -1.60041 -28.5132
lclavicle 4.9895e-014 -5.00937e-014
lhumerus -82.7823 -20.7679 99.9756
lradius 90.1598
lwrist 14.9798
lhand -34.3098 -10.2848
lfingers 7.12502
lthumb -7.47861 19.563
rfemur -8.08473 -1.78332 23.0385
rtibia 50.6449
rfoot 22.4053 -6.52179
rtoes -24.6615
lfemur -76.6499 0.261541 -22.7686
ltibia 70.6566
lfoot -20.3184 -0.118267
ltoes 7.09746
7
root 20.7525 15.0924 40.6945 -153.691 -26.3103 -176.554
lowerback 18.0055 2.43012 3.26406
upperback -0.805645 3.84921 -0.0378354
thorax -10.7956 1.59724 -2.91804
lowerneck -11.5639 -3.6945 -4.69819
upperneck -12.3605 -5.33136 4.22713
head -1.75948 -3.02585 2.05191
rclavicle -5.36719e-015 -4.41302e-014
rhumerus -36.2192 18.2352 -91.7178
rradius 105.285
rwrist -2.45743
rhand -28.9497 1.33737
rfingers 7.12502
rthumb -2.30316 -28.6299
lclavicle -5.36719e-015 -4.41302e-014
lhumerus -80.2775 -20.4839 100.115
lradius 88.7771
lwrist 15.0224
lhand -34.7424 -10.7575
lfingers 7.12502
lthumb -7.89615 19.075
rfemur -10.3659 -3.00726 22.0303
rtibia 54.4543
rfoot 19.3298 -6.81213
rtoes -27.427
lfemur -75.0823 0.0573529 -23.6869
ltibia 70.7867
lfoot -21.2126 -0.376748
ltoes 7.82695
8
root 20.6219 15.1255 40.3712 -153.339 -26.7133 -177.447
lowerback 18.4925 2.26523 2.66297
upperback -0.567173 3.48743 -0.13032
thorax -10.8589 1.45203 -2.60222
lowerneck -11.5988 -3.5971 -4.56772
upperneck -12.8757 -5.27615 4.09389
head -1.93498 -3.02745 2.00129
rclavicle 7.93151e-014 6.36111e-015
rhumerus -35.9379 17.9186 -91.6364
rradius 103.179
rwrist -3.80155
rhand -29.7565 1.15594
rfingers 7.12502
rthumb -3.08232 -28.8015
lclavicle 7.93151e-014 6.36111e-015
lhumerus -77.7282 -20.3306 100.246
lradius 87.3413
lwrist 14.8498
lhand -35.0918 -11.2918
lfingers 7.12502
lthumb -8.23333 18.5277
rfemur -12.8429 -4.1484 21.0277
rtibia 58.1673
rfoot 15.9914 -7.63636
rtoes -28.363
lfemur -73.569 -0.0814051 -24.6137
ltibia 70.9094
lfoot -22.1557 -0.54434
ltoes 8.17446
